<svg xmlns="http://www.w3.org/2000/svg" width="20.399" height="22.518" viewBox="0 0 20.399 22.518">
  <g id="Icon_feather-package" data-name="Icon feather-package" transform="translate(-3 -1.503)">
    <path id="Trazado_1" data-name="Trazado 1" d="M19.948,12.148a1.015,1.015,0,0,1-.509-.137L10.26,6.718a1.02,1.02,0,1,1,1.019-1.767l9.179,5.293a1.02,1.02,0,0,1-.51,1.9Z" transform="translate(-2.16 -1.06)" fill="#fff"/>
    <path id="Trazado_2" data-name="Trazado 2" d="M13.2,23.938a3.064,3.064,0,0,1-1.528-.409L4.534,19.45l0,0A3.069,3.069,0,0,1,3,16.8V8.641A3.069,3.069,0,0,1,4.53,5.993l0,0,7.137-4.078a3.06,3.06,0,0,1,3.057,0l7.137,4.078,0,0A3.069,3.069,0,0,1,23.4,8.64V16.8a3.069,3.069,0,0,1-1.53,2.648l0,0-7.137,4.078A3.064,3.064,0,0,1,13.2,23.938ZM5.549,17.681l7.137,4.078,0,0a1.02,1.02,0,0,0,1.02,0l0,0,7.137-4.078a1.023,1.023,0,0,0,.509-.882V8.641a1.022,1.022,0,0,0-.509-.881L13.713,3.682l0,0a1.02,1.02,0,0,0-1.02,0l0,0L5.549,7.76a1.023,1.023,0,0,0-.509.882V16.8A1.022,1.022,0,0,0,5.549,17.681Z" transform="translate(0 0)" fill="#fff"/>
    <path id="Trazado_3" data-name="Trazado 3" d="M13.329,16.131a1.019,1.019,0,0,1-.511-.137l-8.9-5.151A1.02,1.02,0,1,1,4.936,9.077l8.393,4.855,8.393-4.855a1.02,1.02,0,1,1,1.021,1.766l-8.9,5.151A1.019,1.019,0,0,1,13.329,16.131Z" transform="translate(-0.13 -2.38)" fill="#fff"/>
    <path id="Trazado_4" data-name="Trazado 4" d="M17.52,28.821A1.02,1.02,0,0,1,16.5,27.8V17.52a1.02,1.02,0,0,1,2.04,0V27.8A1.02,1.02,0,0,1,17.52,28.821Z" transform="translate(-4.321 -4.8)" fill="#fff"/>
  </g>
</svg>
