<svg xmlns="http://www.w3.org/2000/svg" width="20.399" height="22.253" viewBox="0 0 20.399 22.253">
  <g id="Icon_ionic-ios-stats" data-name="Icon ionic-ios-stats" transform="translate(-5.625 -4.5)">
    <path id="Trazado_1" data-name="Trazado 1" d="M12.839,26.753H15.62a.465.465,0,0,0,.464-.464V4.964A.465.465,0,0,0,15.62,4.5H12.839a.465.465,0,0,0-.464.464V26.29A.465.465,0,0,0,12.839,26.753Z" transform="translate(-1.187 0)" fill="#fff"/>
    <path id="Trazado_2" data-name="Trazado 2" d="M6.089,29.522H8.87a.465.465,0,0,0,.464-.464V20.714a.465.465,0,0,0-.464-.464H6.089a.465.465,0,0,0-.464.464v8.345A.465.465,0,0,0,6.089,29.522Z" transform="translate(0 -2.769)" fill="#fff"/>
    <path id="Trazado_3" data-name="Trazado 3" d="M19.594,28.731h2.77a.467.467,0,0,0,.469-.469V16.219a.467.467,0,0,0-.469-.469h-2.77a.467.467,0,0,0-.469.469V28.262A.467.467,0,0,0,19.594,28.731Z" transform="translate(-2.373 -1.978)" fill="#fff"/>
    <path id="Trazado_4" data-name="Trazado 4" d="M25.875,9.469V27.075a.467.467,0,0,0,.469.469h2.77a.467.467,0,0,0,.469-.469V9.469A.467.467,0,0,0,29.114,9h-2.77A.467.467,0,0,0,25.875,9.469Z" transform="translate(-3.56 -0.791)" fill="#fff"/>
  </g>
</svg>
