<svg xmlns="http://www.w3.org/2000/svg" width="9" height="13.5" viewBox="0 0 9 13.5">
  <path id="Icon_ionic-ios-help" data-name="Icon ionic-ios-help" d="M18.049,11.25c2.637,0,4.451,1.462,4.451,3.565a3.439,3.439,0,0,1-1.976,3.122c-1.223.71-1.638,1.23-1.638,2.13v.555h-2.44l-.021-.6a2.927,2.927,0,0,1,1.659-3.094c1.188-.71,1.688-1.16,1.688-2.032A1.707,1.707,0,0,0,17.88,13.38,1.779,1.779,0,0,0,16,15.11H13.5C13.549,12.846,15.223,11.25,18.049,11.25ZM16.2,23.3a1.509,1.509,0,1,1,1.5,1.448A1.473,1.473,0,0,1,16.2,23.3Z" transform="translate(-13.5 -11.25)"/>
</svg>
