<svg xmlns="http://www.w3.org/2000/svg" width="23.2" height="14.5" viewBox="0 0 23.2 14.5">
  <path id="see-password" d="M14.171,7.712a12.992,12.992,0,0,0-11.6,7.25,12.9,12.9,0,0,0,23.2,0A12.993,12.993,0,0,0,14.171,7.712Zm5.72,3.845a11.031,11.031,0,0,1,3.386,3.405,11.032,11.032,0,0,1-3.386,3.405,10.63,10.63,0,0,1-11.439,0,11.031,11.031,0,0,1-3.386-3.405,11.031,11.031,0,0,1,3.386-3.405c.089-.057.178-.112.269-.165a5.8,5.8,0,1,0,10.9,0q.136.081.269.165Zm-5.72,1.23A2.175,2.175,0,1,1,12,10.612,2.175,2.175,0,0,1,14.171,12.787Z" transform="translate(-2.571 -7.712)"/>
</svg>
